SplineFontDB: 3.2
FontName: Lithium
FullName: Lithium
FamilyName: Lithium
Weight: Normal
Copyright: Copyright (c) 2023, anzhke
UComments: "2023-3-12: Created with FontForge (http://fontforge.org)"
Version: 0.1b
ItalicAngle: 0
UnderlinePosition: -100
UnderlineWidth: 50
Ascent: 800
Descent: 200
InvalidEm: 0
LayerCount: 2
Layer: 0 0 "Back" 1
Layer: 1 0 "Fore" 0
XUID: [1021 63 -176502330 27821]
StyleMap: 0x0000
FSType: 0
OS2Version: 0
OS2_WeightWidthSlopeOnly: 0
OS2_UseTypoMetrics: 1
CreationTime: 1678608082
ModificationTime: 1691055325
PfmFamily: 17
TTFWeight: 700
TTFWidth: 5
LineGap: 90
VLineGap: 0
OS2TypoAscent: 0
OS2TypoAOffset: 1
OS2TypoDescent: 0
OS2TypoDOffset: 1
OS2TypoLinegap: 90
OS2WinAscent: 0
OS2WinAOffset: 1
OS2WinDescent: 0
OS2WinDOffset: 1
HheadAscent: 0
HheadAOffset: 1
HheadDescent: 0
HheadDOffset: 1
OS2Vendor: 'PfEd'
Lookup: 258 0 0 "'kern' Horizontal Kerning in Latin BUMBERS" { "'kern' Horizontal Kerning in Latin BUMBERS-1" [0,0,3] } ['kern' ('DFLT' <'dflt' > 'latn' <'dflt' > ) ]
Lookup: 258 8 0 "'kern' Horizontal Kerning in Latin lookup 1" { "'kern' Horizontal Kerning in Latin lookup 1-1" [0,0,3] } ['kern' ('DFLT' <'dflt' > 'latn' <'dflt' > ) ]
MarkAttachClasses: 1
DEI: 91125
LangName: 1033
Encoding: ISO8859-1
UnicodeInterp: none
NameList: AGL For New Fonts
DisplaySize: -48
AntiAlias: 1
FitToEm: 0
WidthSeparation: 50
WinInfo: 0 39 13
BeginPrivate: 0
EndPrivate
Grid
-1000 -188 m 0
 2000 -188 l 1024
  Named: "0"
-1000 6069.33337402 m 0
 2000 6069.33337402 l 1024
-1000 -68 m 0
 2000 -68 l 1024
  Named: "2"
-1000 504 m 0
 2000 504 l 1024
  Named: "1"
EndSplineSet
TeXData: 1 0 0 349175 174587 116391 544407 1048576 116391 783286 444596 497025 792723 393216 433062 380633 303038 157286 324010 404750 52429 2506097 1059062 262144
BeginChars: 256 96

StartChar: A
Encoding: 65 65 0
Width: 664
VWidth: 1060
Flags: W
HStem: 0 21G<25 145.894 518.636 639> 0 21G<25 145.894 518.636 639> 264 108<267 402> 780 20G<292.15 383.55>
LayerCount: 2
Fore
SplineSet
525 0 m 1xb0
 441 264 l 1
 230 264 l 1
 139 0 l 1
 25 0 l 1
 299 800 l 1
 377 800 l 1
 639 0 l 1
 525 0 l 1xb0
267 372 m 1
 402 372 l 1
 337 574 l 1
 267 372 l 1
EndSplineSet
Validated: 1
EndChar

StartChar: B
Encoding: 66 66 1
Width: 637
VWidth: 1059
Flags: W
HStem: 1 110<135 444.06> 387 110<135 363.645> 691 110<134 363.555>
VStem: 25 110<111 387 497 691> 401 113<534.115 652.1> 508 104<174.709 323.014>
LayerCount: 2
Fore
SplineSet
25 1 m 1xf4
 25 801 l 1
 304 801 l 2
 305 801 306 801 307 801 c 0
 421 801 514 708 514 594 c 0xf8
 514 548 499 505 474 471 c 1
 556 431 612 346 612 248 c 0
 612 112 501 1 365 1 c 0
 363 1 361 1 359 1 c 1
 25 1 l 1xf4
359 111 m 2
 363 111 366 111 370 111 c 0
 446 111 508 173 508 249 c 0xf4
 508 325 446 387 370 387 c 0
 366 387 363 387 359 387 c 0
 135 387 l 1
 135 111 l 1
 359 111 l 2
304 497 m 2
 357 497 401 541 401 594 c 0xf8
 401 647 357 691 304 691 c 1
 134 691 l 1
 134 497 l 1
 304 497 l 2
EndSplineSet
Validated: 1
EndChar

StartChar: C
Encoding: 67 67 2
Width: 729
VWidth: 1060
Flags: W
HStem: 1 110<322.302 533.747> 691 110<324.404 526.679>
VStem: 25 112<292.528 509.186>
LayerCount: 2
Fore
SplineSet
427 1 m 0
 348 1 273 24 211 64 c 0
 99 135 25 260 25 402 c 0
 25 622 204 801 424 801 c 0
 425 801 426 801 427 801 c 0
 522 798 611 767 685 716 c 1
 629 615 l 1
 573 658 502 686 427 691 c 1
 267 691 137 561 137 401 c 0
 137 379 139 359 143 339 c 0
 172 209 288 112 427 111 c 1
 502 115 571 140 629 182 c 1
 629 181 704 97 704 97 c 1
 634 37 543 1 443 1 c 0
 438 1 432 1 427 1 c 0
EndSplineSet
Validated: 1
EndChar

StartChar: D
Encoding: 68 68 3
Width: 713
VWidth: 1060
Flags: W
HStem: 4 110<135 387.995> 694 110<135 387.995>
VStem: 25 110<114 694> 575 113<296.098 511.902>
LayerCount: 2
Fore
SplineSet
25 4 m 1
 25 804 l 1
 269 804 l 2
 275 804 282 804 288 804 c 0
 509 804 688 625 688 404 c 0
 688 183 509 4 288 4 c 0
 282 4 275 4 269 4 c 0
 25 4 l 1
269 114 m 2
 274 114 280 114 285 114 c 0
 445 114 575 244 575 404 c 0
 575 564 445 694 285 694 c 0
 280 694 274 694 269 694 c 0
 135 694 l 1
 135 114 l 1
 269 114 l 2
EndSplineSet
Validated: 1
EndChar

StartChar: E
Encoding: 69 69 4
Width: 647
VWidth: 1060
Flags: W
HStem: 2 110<135 622> 346 111<135 589> 692 110<135 622>
VStem: 25 110<112 346 457 692>
LayerCount: 2
Fore
SplineSet
25 2 m 1
 25 802 l 1
 622 802 l 1
 622 692 l 1
 135 692 l 1
 135 457 l 5
 589 457 l 5
 589 346 l 1
 135 346 l 1
 135 112 l 1
 622 112 l 1
 622 2 l 1
 25 2 l 1
EndSplineSet
Validated: 1
EndChar

StartChar: F
Encoding: 70 70 5
Width: 647
VWidth: 1060
Flags: W
HStem: -1 21G<25 135> 343 112<135 589> 689 110<135 622>
VStem: 25 110<-1 343 455 689>
LayerCount: 2
Fore
SplineSet
25 -1 m 5
 25 799 l 5
 622 799 l 5
 622 689 l 5
 135 689 l 5
 135 455 l 5
 589 455 l 5
 589 343 l 5
 135 343 l 5
 135 -1 l 5
 25 -1 l 5
EndSplineSet
Validated: 1
EndChar

StartChar: G
Encoding: 71 71 6
Width: 705
VWidth: 1059
Flags: W
HStem: -0 111<319.87 534.389> 331 111<440 555> 690 110<318.128 528.02>
VStem: 25 112<292.796 507.839> 555 111<132.495 331>
LayerCount: 2
Fore
SplineSet
425 -0 m 0
 346 2 272 25 209 63 c 0
 98 134 25 258 25 400 c 0
 25 621 205 800 426 800 c 0
 520 798 608 766 680 715 c 1
 679 715 628 614 628 614 c 1
 571 657 501 685 426 690 c 1
 266 689 137 560 137 400 c 0
 137 241 266 111 426 111 c 0
 472 111 516 122 555 142 c 1
 555 331 l 1
 440 331 l 1
 440 442 l 1
 666 442 l 1
 666 78 l 1
 605 29 527 -0 443 -0 c 0
 437 -0 431 -0 425 -0 c 0
EndSplineSet
Validated: 1
EndChar

StartChar: H
Encoding: 72 72 7
Width: 615
VWidth: 1060
Flags: W
HStem: 0 21G<25 135 479 590> 0 21G<25 135 479 590> 344 112<135 479> 780 20G<25 135 479 590>
VStem: 25 110<0 344 456 800> 479 111<0 344 456 800>
LayerCount: 2
Fore
SplineSet
479 0 m 5xbc
 479 344 l 5
 135 344 l 5
 135 0 l 5
 25 0 l 5
 25 800 l 5
 135 800 l 5
 135 456 l 5
 479 456 l 5
 479 800 l 5
 590 800 l 5
 590 0 l 5
 479 0 l 5xbc
EndSplineSet
Validated: 1
EndChar

StartChar: I
Encoding: 73 73 8
Width: 315
VWidth: 1060
Flags: W
HStem: -1 110<28 103 213 290> 689 110<25 103 213 286>
VStem: 28 262<-1 109 689 799>
LayerCount: 2
Fore
SplineSet
28 -1 m 1
 28 109 l 1
 103 109 l 1
 103 689 l 1
 25 689 l 1
 25 799 l 1
 286 799 l 1
 286 689 l 1
 213 689 l 1
 213 109 l 1
 290 109 l 1
 290 -1 l 1
 28 -1 l 1
EndSplineSet
Validated: 1
EndChar

StartChar: J
Encoding: 74 74 9
Width: 461
VWidth: 1060
Flags: W
HStem: -1 21G<204.5 298.5> 689 110<175 328>
VStem: 328 108<136.962 689>
LayerCount: 2
Fore
SplineSet
246 -1 m 0
 163 5 87 36 25 84 c 1
 26 84 79 179 79 179 c 1
 125 140 184 114 248 109 c 0
 291 112 326 146 328 189 c 1
 328 689 l 1
 175 689 l 1
 175 799 l 1
 436 799 l 1
 436 189 l 2
 436 84 351 -1 246 -1 c 0
EndSplineSet
Validated: 1
EndChar

StartChar: K
Encoding: 75 75 10
Width: 687
VWidth: 1060
Flags: W
HStem: 0 21G<25 135> 1 20G<25 135 485.938 662> 780 20G<25 135 487 661>
VStem: 25 110<0 273 428 800>
LayerCount: 2
Fore
SplineSet
184 322 m 1x70
 135 273 l 1
 135 0 l 1
 25 0 l 1xb0
 25 800 l 1
 135 800 l 1
 135 428 l 1
 507 800 l 1
 661 800 l 1
 262 400 l 1
 662 1 l 1
 506 1 l 1
 184 322 l 1x70
EndSplineSet
Validated: 1
EndChar

StartChar: L
Encoding: 76 76 11
Width: 598
VWidth: 1060
Flags: W
HStem: 0 111<136 573> 780 20G<25 136>
VStem: 25 111<111 800>
LayerCount: 2
Fore
SplineSet
25 0 m 1
 25 800 l 1
 136 800 l 1
 136 111 l 1
 573 111 l 1
 573 0 l 1
 25 0 l 1
EndSplineSet
Validated: 1
EndChar

StartChar: M
Encoding: 77 77 12
Width: 719
VWidth: 1060
Flags: W
HStem: 0 21G<25 135 584 694> 0 21G<25 135 584 694> 780 20G<25 123.535 595.512 694>
VStem: 25 110<0 538> 584 110<0 538>
LayerCount: 2
Fore
SplineSet
584 0 m 5xb8
 584 538 l 5
 360 150 l 5
 135 538 l 5
 135 0 l 5
 25 0 l 5
 25 800 l 5
 112 800 l 5
 360 370 l 5
 607 800 l 5
 694 800 l 5
 694 0 l 5
 584 0 l 5xb8
EndSplineSet
Validated: 1
EndChar

StartChar: O
Encoding: 79 79 13
Width: 858
VWidth: 1059
Flags: W
HStem: -0 110<315.663 541.027> 695 105<319.18 541.439>
VStem: 25 110<291.392 508.972> 723 110<292.422 513.439>
LayerCount: 2
Fore
SplineSet
135 400 m 6
 135 398 135 397 135 395 c 4
 135 238 263 110 420 110 c 4
 422 110 424 110 426 110 c 4
 429 110 432 110 436 110 c 4
 594 110 723 239 723 398 c 6
 723 398 723 399 723 400 c 4
 723 403 723 405 723 408 c 4
 723 567 595 695 436 695 c 4
 433 695 430 695 426 695 c 4
 265 694 135 563 135 402 c 4
 135 401 135 400 135 400 c 6
421 -0 m 6
 202 3 25 181 25 400 c 4
 25 512 71 614 145 686 c 4
 218 757 316 800 425 800 c 6
 437 800 l 6
 656 797 833 619 833 400 c 4
 833 288 787 186 713 114 c 4
 641 43 543 -0 434 -0 c 6
 433 -0 l 5
 421 -0 l 6
EndSplineSet
Validated: 1
EndChar

StartChar: P
Encoding: 80 80 14
Width: 713
VWidth: 1060
Flags: W
HStem: 0 21G<25 136> 0 21G<25 136> 297 110<136 506.888> 690 110<136 506.888>
VStem: 25 111<0 297 407 690> 575 113<473.839 622.751>
LayerCount: 2
Fore
SplineSet
422 407 m 2x3c
 426 407 430 407 433 407 c 0
 512 407 575 470 575 548 c 0
 575 627 512 690 433 690 c 0
 430 690 426 690 422 690 c 2
 136 690 l 1
 136 407 l 1
 422 407 l 2x3c
25 0 m 1xbc
 25 800 l 1
 401 800 l 2
 414 800 427 800 440 800 c 0
 581 800 688 689 688 548 c 0
 688 408 580 297 439 297 c 0
 426 297 368 297 355 297 c 2
 136 297 l 1
 136 0 l 1
 25 0 l 1xbc
EndSplineSet
Validated: 1
EndChar

StartChar: Q
Encoding: 81 81 15
Width: 837
VWidth: 1060
Flags: W
HStem: 4 107<302.103 512.592> 669 109<392 513.019>
VStem: 25 103<286.668 495.384> 685 106<283.942 497.741>
LayerCount: 2
Fore
SplineSet
392 668 m 6
 244 660 128 541 128 391 c 4
 128 241 246 119 394 111 c 5
 408 111 l 6
 463 112 515 128 559 157 c 5
 558 157 496 219 496 219 c 5
 572 295 l 5
 635 232 l 5
 666 277 685 332 685 391 c 4
 685 467 654 536 605 587 c 4
 554 638 485 669 408 669 c 5
 392 668 l 6
634 81 m 5
 570 33 490 4 404 4 c 6
 392 4 l 5
 188 15 25 184 25 391 c 4
 25 599 190 770 396 778 c 5
 408 778 l 6
 620 776 791 604 791 392 c 4
 791 303 761 221 710 155 c 5
 712 155 812 53 812 53 c 5
 738 -22 l 5
 634 81 l 5
EndSplineSet
Validated: 1
EndChar

StartChar: N
Encoding: 78 78 16
Width: 698
VWidth: 1060
Flags: W
HStem: -1 21G<25 135 575.384 673> 779 19G<25 121.59 562 673>
VStem: 25 110<-1 583> 562 111<214 798>
LayerCount: 2
Fore
SplineSet
591 -1 m 1
 135 583 l 1
 135 -1 l 1
 25 -1 l 1
 25 799 l 1
 106 799 l 1
 562 214 l 1
 562 798 l 1
 673 798 l 1
 673 -1 l 1
 591 -1 l 1
EndSplineSet
Validated: 1
EndChar

StartChar: R
Encoding: 82 82 17
Width: 777
VWidth: 1060
Flags: W
HStem: 0 22G<25 135 575.067 752> 298 110<135 298 449 494.93> 687 113<135 496.731>
VStem: 25 110<1 298 408 687> 560 116<474.538 620.797>
LayerCount: 2
Fore
SplineSet
298 298 m 1
 135 298 l 1
 135 1 l 1
 25 1 l 1
 25 800 l 1
 422 800 l 2
 427 800 432 801 437 801 c 0
 569 801 676 693 676 561 c 0
 676 556 676 551 676 546 c 0
 676 541 676 536 676 531 c 0
 676 405 575 302 449 299 c 1
 752 0 l 1
 595 0 l 1
 298 298 l 1
422 408 m 2
 498 408 559 470 560 546 c 0
 560 548 560 549 560 551 c 0
 560 626 499 687 423 687 c 0
 422 687 l 0
 135 687 l 1
 135 408 l 1
 422 408 l 2
EndSplineSet
Validated: 1
EndChar

StartChar: S
Encoding: 83 83 18
Width: 657
VWidth: 1059
Flags: W
HStem: 1 112<264.467 457.115> 694 107<215.743 427.641>
VStem: 39 120<520.329 645.671> 510 108<158.694 268.633>
LayerCount: 2
Fore
SplineSet
382 1 m 0
 381 1 379 1 378 1 c 0
 237 1 111 63 25 162 c 0
 82 256 l 1
 82 256 222 113 360 113 c 0
 361 113 362 113 363 113 c 0
 367 112 371 112 375 112 c 0
 416 112 454 127 482 152 c 0
 502 172 510 192 510 211 c 0
 510 256 468 297 436 317 c 0
 362 354 280 379 194 389 c 0
 105 409 39 488 39 583 c 0
 39 584 38 586 38 587 c 0
 46 760 199 801 313 801 c 0
 432 795 542 753 632 687 c 1
 631 687 567 602 567 602 c 2
 495 655 408 688 313 694 c 0
 219 694 159 652 159 589 c 0
 159 587 159 586 159 584 c 0
 159 581 159 579 159 576 c 0
 159 536 187 502 225 494 c 0
 323 485 418 458 502 415 c 0
 567 381 613 315 617 237 c 0
 618 229 618 220 618 212 c 0
 618 163 601 118 572 82 c 0
 528 32 464 1 393 1 c 0
 389 1 385 1 382 1 c 0
EndSplineSet
Validated: 1
EndChar

StartChar: T
Encoding: 84 84 19
Width: 699
VWidth: 1060
Flags: W
HStem: 0 21G<294 404> 0 21G<294 404> 690 110<25 294 404 674>
VStem: 294 110<0 690>
LayerCount: 2
Fore
SplineSet
294 0 m 1xb0
 294 690 l 1
 25 690 l 1
 25 800 l 1
 674 800 l 1
 674 690 l 1
 404 690 l 1
 404 0 l 1
 294 0 l 1xb0
EndSplineSet
Validated: 1
EndChar

StartChar: U
Encoding: 85 85 20
Width: 698
VWidth: 1059
Flags: W
HStem: -0 110<248.718 449.85> 780 20G<25 134 563 673>
VStem: 25 109<223.718 800> 563 110<223.15 800>
LayerCount: 2
Fore
SplineSet
333 -0 m 2
 163 -0 25 138 25 308 c 2
 25 800 l 1
 134 800 l 1
 134 308 l 2
 134 199 223 110 332 110 c 2
 333 110 l 1
 364 110 l 2
 365 110 365 110 365 110 c 2
 474 110 563 199 563 308 c 2
 563 800 l 1
 673 800 l 1
 673 308 l 1
 673 307 l 2
 673 138 535 -0 366 -0 c 0
 365 -0 365 -0 364 -0 c 2
 333 -0 l 2
EndSplineSet
Validated: 1
EndChar

StartChar: V
Encoding: 86 86 21
Width: 748
VWidth: 1060
Flags: W
HStem: 0 21G<329.2 418.8> 0 21G<329.2 418.8> 780 20G<25 147.806 599.161 723>
LayerCount: 2
Fore
SplineSet
337 0 m 1xa0
 25 800 l 1
 140 800 l 1
 373 203 l 1
 607 800 l 1
 723 800 l 1
 411 0 l 1
 337 0 l 1xa0
EndSplineSet
Validated: 1
EndChar

StartChar: W
Encoding: 87 87 22
Width: 943
VWidth: 1060
Flags: W
HStem: 0 21G<259 352.911 590.129 684> 0 21G<259 352.911 590.129 684> 780 20G<25 144.011 798.989 918>
LayerCount: 2
Fore
SplineSet
595 0 m 1xa0
 472 505 l 1
 348 0 l 1
 265 0 l 1
 25 800 l 1
 138 800 l 1
 300 261 l 1
 429 788 l 1
 514 788 l 1
 643 261 l 1
 805 800 l 1
 918 800 l 1
 678 0 l 1
 595 0 l 1xa0
EndSplineSet
Validated: 1
EndChar

StartChar: X
Encoding: 88 88 23
Width: 808
VWidth: 1060
Flags: W
HStem: 1 21G<25 173.57 634.43 782> 781 20G<26 173.619 634.381 783>
LayerCount: 2
Fore
SplineSet
404 317 m 1
 158 1 l 1
 25 1 l 1
 337 402 l 1
 26 801 l 1
 158 801 l 1
 404 486 l 1
 650 801 l 1
 783 801 l 1
 470 402 l 1
 782 1 l 1
 650 1 l 1
 404 317 l 1
EndSplineSet
Validated: 1
EndChar

StartChar: Y
Encoding: 89 89 24
Width: 809
VWidth: 1060
Flags: W
HStem: 0 21G<351 459> 0 21G<351 459> 780 20G<25 169.95 639.106 784>
VStem: 351 108<0 333>
LayerCount: 2
Fore
SplineSet
351 0 m 1xb0
 351 333 l 1
 25 800 l 1
 156 800 l 1
 405 443 l 1
 653 800 l 1
 784 800 l 1
 459 333 l 1
 459 0 l 1
 351 0 l 1xb0
EndSplineSet
Validated: 1
EndChar

StartChar: Z
Encoding: 90 90 25
Width: 697
VWidth: 1060
Flags: W
HStem: 0 110<192 672> 690 110<25 504>
LayerCount: 2
Fore
SplineSet
672 725 m 1
 192 110 l 1
 672 110 l 1
 672 0 l 1
 25 0 l 1
 25 76 l 1
 504 690 l 1
 25 690 l 1
 25 800 l 1
 672 800 l 1
 672 725 l 1
EndSplineSet
Validated: 1
EndChar

StartChar: asciitilde
Encoding: 126 126 26
Width: 668
VWidth: 1463
Flags: W
HStem: 246 105<399.126 593.562> 298 101<79.1875 313.178>
LayerCount: 2
Fore
SplineSet
197 298 m 6x40
 193 298 l 6
 167 298 142 295 118 288 c 6
 49 267 l 5
 25 364 l 5
 94 386 l 5
 126 394 161 398 196 399 c 4x40
 232 398 266 394 299 386 c 4
 300 386 398 360 398 360 c 6
 422 354 447 351 472 351 c 6
 474 351 l 6
 500 351 526 354 550 360 c 5
 618 380 l 5
 643 284 l 5
 575 261 l 5
 542 251 506 246 470 246 c 4x80
 435 247 401 252 369 261 c 6
 270 288 l 6
 247 295 222 298 197 298 c 6x40
EndSplineSet
Validated: 1
EndChar

StartChar: grave
Encoding: 96 96 27
Width: 229
VWidth: 1456
Flags: W
HStem: 547 250
VStem: 25 179
LayerCount: 2
Fore
SplineSet
124 547 m 1
 25 760 l 1
 105 797 l 1
 204 584 l 1
 124 547 l 1
EndSplineSet
Validated: 1
EndChar

StartChar: exclam
Encoding: 33 33 28
Width: 172
VWidth: 1624
Flags: W
HStem: 4 116<39.7704 132.23> 780 20G<31 140>
VStem: 25 122<18.0694 105.23> 31 109<246 800>
LayerCount: 2
Fore
SplineSet
31 246 m 1xd0
 31 800 l 1
 140 800 l 1
 140 246 l 1
 31 246 l 1xd0
25 59 m 0xe0
 25 93 52 120 86 120 c 0
 120 120 147 93 147 59 c 0
 145 28 119 4 88 4 c 2
 85 4 l 2
 53 4 28 28 25 59 c 0xe0
EndSplineSet
Validated: 1
EndChar

StartChar: quotedbl
Encoding: 34 34 29
Width: 269
VWidth: 1366
Flags: W
HStem: 600 200<25 121 148 244>
VStem: 25 96<600 800> 148 96<600 800>
LayerCount: 2
Fore
SplineSet
25 600 m 1
 25 800 l 1
 121 800 l 1
 121 600 l 1
 25 600 l 1
148 600 m 1
 148 800 l 1
 244 800 l 1
 244 600 l 1
 148 600 l 1
EndSplineSet
Validated: 1
EndChar

StartChar: numbersign
Encoding: 35 35 30
Width: 781
VWidth: 1626
Flags: W
HStem: 0 21G<491.087 538.269> 2 21G<183.894 232.092 491.087 538.269> 208 102<40 149 583 698> 525 99<87 195 322 507 630 741> 780 20G<235.854 286.727 543.477 598.22>
LayerCount: 2
Fore
SplineSet
434 46 m 1xb8
 459 209 l 1
 261 209 l 1
 229 2 l 1x78
 123 49 l 1
 149 212 l 1
 25 212 l 1
 40 315 l 1
 161 315 l 1
 195 520 l 1
 72 520 l 1
 87 622 l 1
 211 622 l 1
 239 800 l 1
 344 756 l 1
 322 624 l 1
 516 624 l 1
 547 800 l 1
 652 759 l 1
 630 627 l 1
 756 627 l 1
 741 525 l 1
 612 525 l 1
 583 310 l 1
 712 310 l 1
 698 208 l 1
 569 208 l 1
 535 0 l 1
 434 46 l 1xb8
472 321 m 1
 507 525 l 1
 309 525 l 1
 274 321 l 1
 472 321 l 1
EndSplineSet
Validated: 1
EndChar

StartChar: dollar
Encoding: 36 36 31
Width: 499
VWidth: 1628
Flags: W
HStem: 0 21G<195 304> 0 21G<195 304> 87 84<144.537 195 304 338.712> 635 83<151.484 195> 780 20G<195 304>
VStem: 37 78<481.001 596.771> 195 109<0 89.7891 175 340 450 625 718 800> 376 82<208.234 315.332>
LayerCount: 2
Fore
SplineSet
304 175 m 5x3f
 342 185 372 218 376 258 c 5
 376 261 l 6
 376 299 351 330 317 340 c 5
 304 340 l 5
 304 175 l 5x3f
165 458 m 5
 195 450 l 5
 195 635 l 5
 150 627 116 588 116 540 c 4
 115 538 115 536 115 534 c 4
 115 500 136 471 165 458 c 5
37 538 m 6
 37 553 l 6
 37 641 107 714 195 718 c 5
 195 800 l 5
 304 800 l 5
 304 800 304 760 304 733 c 4
 304 719 304 709 304 709 c 5
 369 693 428 660 474 615 c 5
 424 559 l 5
 390 590 349 612 304 625 c 5
 304 432 l 5
 330 425 l 6
 404 404 458 335 458 254 c 4
 458 253 458 252 458 251 c 4
 457 165 389 94 304 87 c 5
 304 0 l 5
 195 0 l 5xbf
 195 0 195 39 195 64 c 4
 195 77 195 87 195 87 c 5
 129 102 71 135 25 181 c 5
 82 247 l 5
 110 211 149 184 195 171 c 5
 195 171 195 255 195 312 c 4
 195 340 195 361 195 361 c 5
 176 365 158 371 140 379 c 4
 80 406 37 467 37 538 c 6
EndSplineSet
Validated: 1
EndChar

StartChar: percent
Encoding: 37 37 32
Width: 702
VWidth: 1678
Flags: W
HStem: -0 21G<70.1818 111.618> -0 21G<70.1818 111.618> 3 90<472.307 536.693> 257 78<471.631 538.29> 456 90<163.904 228.693> 708 92<163.843 228.693>
VStem: 67 92<551.908 703.157> 235 89<551.307 701.638> 377 90<98.3075 252.398> 542 90<98.3075 252.398>
LayerCount: 2
Fore
SplineSet
505 257 m 2x3fc0
 504 257 l 2
 484 257 467 241 467 220 c 2
 467 130 l 2
 468 110 485 93 505 93 c 0
 526 93 542 110 542 130 c 2
 542 219 l 2
 542 240 526 257 505 257 c 2x3fc0
505 3 m 2
 504 3 l 2
 434 3 377 60 377 130 c 2
 377 217 l 1
 382 283 438 335 505 335 c 0
 572 335 627 283 632 217 c 1
 632 130 l 2
 632 60 575 3 505 3 c 2
197 456 m 2
 196 456 l 2
 125 456 68 513 67 584 c 2
 67 671 l 2
 67 742 125 800 196 800 c 2
 197 800 l 2
 267 800 324 743 324 673 c 2
 324 583 l 2
 324 513 267 456 197 456 c 2
96 -0 m 1x9fc0
 25 55 l 1
 606 799 l 1
 677 744 l 1
 96 -0 l 1x9fc0
197 708 m 0
 176 707 160 691 159 671 c 2
 159 584 l 2
 160 563 176 547 197 546 c 0
 218 546 235 563 235 584 c 2
 235 671 l 2
 234 691 217 708 197 708 c 0
EndSplineSet
Validated: 1
EndChar

StartChar: ampersand
Encoding: 38 38 33
Width: 760
VWidth: 1706
Flags: W
HStem: 0 21G<675 705.298> 0 21G<675 705.298> 4 103<212.672 368.017> 427 104<319 372.079> 702 98<269.398 372.695>
VStem: 26 102<192.049 346.25> 133 104<566.156 672.243> 403 104<563.136 671.855> 535 100<335.317 437>
LayerCount: 2
Fore
SplineSet
507 585 m 1x3f80
 492 489 408 427 319 427 c 1
 362 359 412 300 472 247 c 1
 503 301 529 361 535 427 c 5
 535 452 l 5
 635 437 l 1
 635 412 l 5
 634 348 593 254 551 187 c 1
 602 154 656 126 713 104 c 1
 736 94 l 1
 697 0 l 1x9f80
 675 8 l 1
 610 34 548 68 492 107 c 1
 478 90 463 74 448 59 c 0
 403 25 347 5 287 4 c 1
 275 4 l 1
 137 13 27 127 26 268 c 1
 26 278 l 1
 31 373 85 454 164 497 c 1
 155 520 146 542 137 566 c 1
 137 576 l 1
 135 586 133 598 133 609 c 2
 133 642 l 1
 150 738 234 800 322 800 c 2
 324 800 l 2
 328 800 332 801 336 801 c 0
 340 801 344 800 348 800 c 0
 438 786 506 708 506 614 c 0
 506 613 507 613 507 612 c 2
 507 585 l 1x3f80
128 272 m 2
 128 186 193 109 283 107 c 0
 283 107 284 107 285 107 c 0
 288 107 292 107 292 107 c 2x3f80
 361 107 394 147 409 166 c 1
 330 236 263 318 211 411 c 1
 164 384 131 333 128 275 c 1
 128 272 l 2
237 628 m 1
 237 610 l 2
 237 608 236 605 236 603 c 0
 236 600 237 597 237 595 c 0
 245 572 254 550 265 529 c 1
 284 531 l 1
 319 531 l 1
 362 533 396 565 403 605 c 1
 403 619 l 1
 401 660 370 695 330 702 c 1
 320 702 l 1
 278 700 244 668 237 628 c 1
EndSplineSet
Validated: 1
EndChar

StartChar: slash
Encoding: 47 47 35
Width: 423
VWidth: 1669
Flags: W
HStem: -0 21G<46.1429 106.756> -0 21G<46.1429 106.756> 780 20G<316.254 375.034>
LayerCount: 2
Fore
SplineSet
99 -0 m 1xa0
 25 28 l 1
 324 800 l 1
 398 771 l 1
 99 -0 l 1xa0
EndSplineSet
Validated: 1
EndChar

StartChar: quotesingle
Encoding: 39 39 36
Width: 146
VWidth: 1368
Flags: W
HStem: 600 200<25 121>
VStem: 25 96<600 800>
LayerCount: 2
Fore
SplineSet
25 600 m 1
 25 800 l 1
 121 800 l 1
 121 600 l 1
 25 600 l 1
EndSplineSet
Validated: 1
EndChar

StartChar: parenleft
Encoding: 40 40 37
Width: 277
VWidth: 1636
Flags: W
HStem: 0 21G<161 204.333> 0 21G<161 204.333> 780 20G<178 204.429>
VStem: 25 97<256.605 547.448>
LayerCount: 2
Fore
SplineSet
158 23 m 6xb0
 75 126 25 257 25 399 c 4
 25 541 75 673 158 776 c 5
 158 775 178 800 178 800 c 5
 252 744 l 5
 232 719 l 6
 163 632 122 522 122 402 c 4
 122 282 163 171 232 84 c 5
 232 85 251 60 251 60 c 5
 181 0 l 5
 158 23 l 6xb0
EndSplineSet
Validated: 1
EndChar

StartChar: parenright
Encoding: 41 41 38
Width: 272
VWidth: 1643
Flags: W
HStem: 0 21G<72.5932 97> 0 21G<72.5932 97> 780 20G<72.5714 114.833>
VStem: 154 93<255.863 547.137>
LayerCount: 2
Fore
SplineSet
25 59 m 1xb0
 44 84 l 2
 113 171 154 282 154 401 c 0
 154 402 154 402 154 402 c 0
 154 521 113 632 45 719 c 1
 25 744 l 1
 99 800 l 1
 118 776 l 2
 199 673 247 543 247 402 c 0
 247 401 l 0
 247 400 247 400 247 400 c 0
 247 259 199 128 118 25 c 1
 117 25 97 0 97 0 c 1
 25 59 l 1xb0
EndSplineSet
Validated: 1
EndChar

StartChar: asterisk
Encoding: 42 42 39
Width: 498
VWidth: 1620
Flags: W
HStem: 554 20G<50 66.5 431 447.5>
VStem: 210 76<182.812 363 497 677.188>
LayerCount: 2
Fore
SplineSet
251 180 m 2
 246 180 l 2
 226 180 210 196 210 216 c 2
 210 363 l 1
 81 289 l 2
 78 288 75 288 72 288 c 0
 69 288 66 288 63 289 c 0
 52 289 30 293 25 325 c 1
 25 326 l 2
 25 340 33 352 44 358 c 2
 170 430 l 1
 45 503 l 2
 33 509 25 521 25 535 c 0
 25 551 37 572 63 574 c 0
 70 574 77 571 82 567 c 1
 209 496 l 1
 209 644 l 2
 209 664 225 680 245 680 c 2
 251 680 l 2
 270 680 286 664 286 645 c 2
 286 497 l 1
 416 568 l 2
 422 571 428 572 434 572 c 2
 435 572 l 2
 460 572 473 551 473 534 c 0
 473 520 464 507 451 502 c 1
 324 430 l 1
 450 358 l 2
 462 352 470 339 470 325 c 0
 470 306 456 286 433 286 c 0
 425 287 419 289 413 293 c 2
 286 364 l 1
 286 215 l 2
 286 196 270 180 251 180 c 2
EndSplineSet
Validated: 1
EndChar

StartChar: plus
Encoding: 43 43 40
Width: 549
VWidth: 1620
Flags: W
HStem: 368 86<25 232 317 524>
VStem: 232 85<161 368 454 660>
LayerCount: 2
Fore
SplineSet
232 161 m 5
 232 368 l 5
 25 368 l 5
 25 454 l 5
 232 454 l 5
 232 660 l 5
 317 660 l 5
 317 454 l 5
 524 454 l 5
 524 368 l 5
 317 368 l 5
 317 161 l 5
 232 161 l 5
EndSplineSet
Validated: 1
EndChar

StartChar: comma
Encoding: 44 44 41
Width: 188
VWidth: 1929
Flags: W
HStem: -52 176
VStem: 41 122<17.6465 110.738>
LayerCount: 2
Fore
SplineSet
99 -52 m 1
 25 -42 l 1
 67 14 l 1
 55 23 45 38 42 54 c 0
 41 58 41 62 41 65 c 0
 41 78 44 90 52 100 c 0
 61 112 76 121 91 124 c 0
 95 125 99 125 103 125 c 0
 116 125 128 122 137 115 c 0
 150 106 159 90 162 75 c 0
 163 72 163 68 163 65 c 0
 163 52 159 39 153 29 c 2
 99 -52 l 1
EndSplineSet
Validated: 1
EndChar

StartChar: period
Encoding: 46 46 42
Width: 173
VWidth: 1892
Flags: W
HStem: -18 122<40.1072 132.8>
VStem: 25 123<-3.22963 89.2296>
LayerCount: 2
Fore
SplineSet
86 -18 m 0
 53 -18 25 9 25 43 c 0
 25 77 53 104 86 104 c 0
 120 104 148 77 148 43 c 0
 148 9 120 -18 86 -18 c 0
83 43 m 1
 83 43 l 1
EndSplineSet
Validated: 1
EndChar

StartChar: hyphen
Encoding: 45 45 43
Width: 566
VWidth: 1620
Flags: W
HStem: 367 88<25 541>
LayerCount: 2
Fore
SplineSet
25 367 m 1
 25 455 l 1
 541 455 l 1
 541 367 l 1
 25 367 l 1
EndSplineSet
Validated: 1
EndChar

StartChar: colon
Encoding: 58 58 44
Width: 170
VWidth: 1739
Flags: W
HStem: 1 119<40.0142 129.986> 512 119<38.7454 131.255>
VStem: 25 120<16.0142 105.079 525.339 617.255>
LayerCount: 2
Fore
SplineSet
25 571 m 0
 25 604 52 631 85 631 c 0
 118 631 145 604 145 571 c 0
 145 538 118 512 85 512 c 0
 52 512 25 538 25 571 c 0
85 120 m 0
 117 120 145 92 145 61 c 0
 145 29 117 1 85 1 c 0
 53 1 25 29 25 61 c 0
 25 92 53 120 85 120 c 0
EndSplineSet
Validated: 1
EndChar

StartChar: semicolon
Encoding: 59 59 45
Width: 189
VWidth: 1748
Flags: W
HStem: 509 121<48.7704 138.968>
VStem: 34 121<524.084 614.08> 41 123<0.1875 95.3406>
LayerCount: 2
Fore
SplineSet
34 569 m 0xc0
 34 602 61 629 95 630 c 0
 128 628 154 602 155 569 c 0
 154 536 128 510 95 509 c 0
 62 509 35 536 34 569 c 0xc0
154 12 m 1
 99 -72 l 1
 25 -60 l 1
 67 -4 l 1
 54 7 45 22 42 39 c 0
 41 42 41 45 41 49 c 0
 41 71 56 103 92 110 c 0
 98 111 108 110 108 110 c 0
 139 108 164 81 164 48 c 0xa0
 164 36 161 24 154 12 c 1
EndSplineSet
Validated: 1
EndChar

StartChar: less
Encoding: 60 60 46
Width: 357
VWidth: 1618
Flags: W
VStem: 25 307
LayerCount: 2
Fore
SplineSet
25 419 m 1
 274 670 l 1
 332 615 l 1
 136 419 l 1
 332 225 l 1
 274 170 l 1
 25 419 l 1
EndSplineSet
Validated: 1
EndChar

StartChar: equal
Encoding: 61 61 47
Width: 566
VWidth: 1620
Flags: W
HStem: 277 88<25 541> 457 88<25 541>
LayerCount: 2
Fore
SplineSet
25 277 m 1
 25 365 l 1
 541 365 l 1
 541 277 l 1
 25 277 l 1
25 457 m 5
 25 545 l 5
 541 545 l 5
 541 457 l 5
 25 457 l 5
EndSplineSet
Validated: 1
EndChar

StartChar: greater
Encoding: 62 62 48
Width: 356
VWidth: 1620
Flags: W
VStem: 25 306
LayerCount: 2
Fore
SplineSet
25 226 m 5
 219 420 l 5
 25 614 l 5
 81 670 l 5
 331 420 l 5
 81 170 l 5
 25 226 l 5
EndSplineSet
Validated: 1
EndChar

StartChar: question
Encoding: 63 63 49
Width: 470
VWidth: 1629
Flags: W
HStem: 1 124<185.77 277.893> 578 21G<25 112> 708 92<181.486 317.455>
VStem: 171 122<15.9194 110.23> 181 92<248 455.235> 355 90<595.056 670.851>
LayerCount: 2
Fore
SplineSet
171 57 m 0xf4
 171 59 171 62 171 64 c 0
 171 98 198 125 232 125 c 0
 265 125 293 98 293 64 c 0
 293 62 293 59 292 57 c 0
 290 26 264 1 232 1 c 0
 232 1 231 1 230 1 c 0
 199 2 174 26 171 57 c 0xf4
181 248 m 1xec
 181 429 l 2
 181 495 244 533 294 562 c 0
 315 572 333 586 349 602 c 0
 353 609 355 617 355 625 c 0
 347 672 305 708 256 708 c 0
 255 708 253 708 252 708 c 0
 132 708 112 578 112 578 c 1
 25 598 l 2
 34 711 128 800 244 800 c 0
 246 800 248 800 250 800 c 0
 252 800 254 800 255 800 c 0
 355 800 437 723 445 626 c 0
 445 543 391 515 339 484 c 0
 312 470 273 443 273 429 c 2
 273 248 l 1
 181 248 l 1xec
EndSplineSet
Validated: 1
EndChar

StartChar: at
Encoding: 64 64 50
Width: 790
VWidth: 1692
Flags: W
HStem: 0 95<301.706 747> 176 96<341.495 530> 534 96<337.994 494.363> 705 95<301.706 532.821>
VStem: 25 77<290.834 509.372> 210 94<307.495 497.512> 530 92<272 497.512> 672 93<271.936 561.173>
LayerCount: 2
Fore
SplineSet
407 0 m 1
 194 10 25 185 25 400 c 0
 25 615 194 790 407 800 c 1
 436 800 l 2
 618 800 765 653 765 471 c 2
 765 315 l 2
 765 314 765 314 765 313 c 0
 765 289 759 266 749 247 c 0
 726 198 677 165 620 164 c 0
 601 165 583 169 566 176 c 1
 397 176 l 2
 294 176 210 260 210 363 c 0
 210 364 210 365 210 366 c 2
 210 442 l 2
 210 545 294 629 397 630 c 2
 434 630 l 2
 538 629 622 545 622 442 c 2
 622 261 l 1
 641 262 656 273 665 289 c 0
 670 295 672 303 672 312 c 2
 672 313 l 1
 672 471 l 2
 671 600 566 705 436 705 c 2
 407 705 l 2
 238 705 102 569 102 400 c 0
 102 232 238 95 407 95 c 2
 747 95 l 1
 747 0 l 1
 407 0 l 1
397 534 m 2
 346 534 304 493 304 442 c 2
 304 366 l 2
 304 314 346 273 397 272 c 2
 530 272 l 1
 530 442 l 2
 530 493 488 534 436 534 c 2
 397 534 l 2
EndSplineSet
Validated: 1
EndChar

StartChar: bracketleft
Encoding: 91 91 51
Width: 236
VWidth: 1620
Flags: W
HStem: 0 75<100 211> 725 75<100 211>
VStem: 25 186<0 75 725 800> 25 75<75 725>
LayerCount: 2
Fore
SplineSet
25 0 m 1xe0
 25 800 l 1
 211 800 l 1
 211 725 l 1xe0
 100 725 l 1
 100 75 l 1xd0
 211 75 l 1
 211 0 l 1
 25 0 l 1xe0
EndSplineSet
Validated: 1
EndChar

StartChar: bracketright
Encoding: 93 93 52
Width: 236
VWidth: 1618
Flags: W
HStem: 0 75<25 136> 725 75<25 136>
VStem: 25 186<0 75 725 800> 136 75<75 725>
LayerCount: 2
Fore
SplineSet
25 0 m 1xe0
 25 75 l 1xe0
 136 75 l 1
 136 725 l 1xd0
 25 725 l 1
 25 800 l 1
 211 800 l 1
 211 0 l 1
 25 0 l 1xe0
EndSplineSet
Validated: 1
EndChar

StartChar: asciicircum
Encoding: 94 94 53
Width: 641
VWidth: 1469
Flags: W
HStem: 780 20G<301.796 342>
LayerCount: 2
Fore
SplineSet
322 669 m 1
 91 440 l 1
 25 506 l 1
 322 800 l 1
 616 506 l 1
 550 440 l 1
 322 669 l 1
EndSplineSet
Validated: 1
EndChar

StartChar: underscore
Encoding: 95 95 54
Width: 566
VWidth: 1620
Flags: W
HStem: 3 88<25 541>
LayerCount: 2
Fore
SplineSet
25 3 m 1
 25 91 l 1
 541 91 l 1
 541 3 l 1
 25 3 l 1
EndSplineSet
Validated: 1
EndChar

StartChar: braceleft
Encoding: 123 123 55
Width: 374
VWidth: 1619
Flags: W
HStem: -0 77<239.328 349> 722 78<239.328 349>
VStem: 162 77<77.6152 327 472 721.674>
LayerCount: 2
Fore
SplineSet
259 -0 m 6
 205 -0 162 44 162 97 c 4
 162 98 162 98 162 98 c 5
 162 327 l 5
 25 400 l 5
 162 472 l 5
 162 702 l 6
 162 756 205 799 259 800 c 6
 349 800 l 5
 349 722 l 5
 259 722 l 6
 248 722 239 713 239 702 c 6
 239 426 l 5
 190 400 l 5
 239 374 l 5
 239 98 l 5
 239 97 l 6
 239 86 248 77 259 77 c 6
 349 77 l 5
 349 -1 l 5
 259 -0 l 6
EndSplineSet
Validated: 1
EndChar

StartChar: braceright
Encoding: 125 125 56
Width: 374
VWidth: 1620
Flags: W
HStem: 1 78<25 133.672> 723 78<25 133.672>
VStem: 134 77<79.6152 325 470 721.022>
LayerCount: 2
Fore
SplineSet
25 1 m 5
 25 79 l 5
 114 79 l 6
 125 79 134 88 134 99 c 6
 134 375 l 5
 181 401 l 5
 134 427 l 5
 134 704 l 6
 134 714 125 723 114 723 c 6
 25 723 l 5
 25 801 l 5
 114 801 l 6
 168 801 211 757 211 704 c 6
 211 470 l 5
 349 397 l 5
 211 325 l 5
 211 99 l 6
 211 46 168 2 114 2 c 6
 25 1 l 5
EndSplineSet
Validated: 1
EndChar

StartChar: bar
Encoding: 124 124 57
Width: 151
VWidth: 1618
Flags: W
HStem: 781 20G<25 126>
VStem: 25 101<4 371 434 801>
LayerCount: 2
Fore
SplineSet
25 434 m 1
 25 801 l 1
 126 801 l 1
 126 434 l 1
 25 434 l 1
25 4 m 1
 25 371 l 1
 126 371 l 1
 126 4 l 1
 25 4 l 1
EndSplineSet
Validated: 1
EndChar

StartChar: backslash
Encoding: 92 92 58
Width: 423
VWidth: 1618
Flags: W
HStem: -0 21G<316.244 375.034> -0 21G<316.244 375.034> 780 20G<47.9655 106.756>
LayerCount: 2
Fore
SplineSet
324 -0 m 5xa0
 25 771 l 5
 99 800 l 5
 398 29 l 5
 324 -0 l 5xa0
EndSplineSet
Validated: 1
EndChar

StartChar: a
Encoding: 97 97 59
Width: 588
VWidth: 1032
Flags: W
HStem: -14 112<165.911 337.895> 299 90<184.201 393.093> 471 101<66.7454 336.651>
VStem: 25 102<133.126 245.931> 423 112<163.484 273.77>
LayerCount: 2
Fore
SplineSet
289 299 m 0
 283 299 277 299 272 299 c 0
 163 293 128 238 127 192 c 0
 127 190 127 189 127 188 c 0
 127 186 127 185 127 183 c 0
 128 166 133 151 140 141 c 0
 163 116 197 100 234 98 c 0
 237 98 239 98 242 98 c 0
 244 98 245 98 247 98 c 0
 249 98 250 98 252 99 c 0
 253 99 254 99 255 99 c 0
 323 102 384 136 423 187 c 1
 426 260 l 1
 390 283 348 297 303 299 c 0
 298 299 293 299 289 299 c 0
154 2 m 0
 110 17 74 46 49 84 c 0
 36 104 27 134 25 166 c 0
 25 170 25 174 25 178 c 0
 25 181 25 183 25 186 c 0
 28 276 87 380 253 389 c 0
 260 390 268 390 276 390 c 0
 281 390 287 390 292 389 c 0
 293 389 293 389 294 389 c 0
 336 387 376 379 412 363 c 1
 393 417 346 457 289 466 c 0
 272 468 254 470 236 470 c 0
 230 471 224 471 217 471 c 0
 208 471 199 471 189 470 c 0
 141 467 93 458 49 444 c 0
 48 444 33 550 33 550 c 1
 84 560 137 568 191 570 c 0
 207 571 224 572 240 572 c 0
 251 572 262 572 272 571 c 0
 285 571 298 570 311 569 c 0
 381 560 442 522 479 467 c 0
 517 417 531 342 535 273 c 0
 535 259 536 246 536 233 c 0
 536 222 535 212 535 203 c 0
 533 146 526 104 526 104 c 1
 560 112 l 1
 563 8 l 1
 563 8 538 -2 510 -4 c 0
 507 -4 505 -4 502 -4 c 0
 501 -4 499 -4 498 -4 c 0
 477 -3 455 3 439 21 c 0
 432 26 428 32 424 41 c 1
 379 9 325 -11 267 -14 c 0
 262 -14 257 -14 252 -14 c 0
 249 -14 245 -14 242 -14 c 0
 211 -13 181 -7 154 2 c 0
EndSplineSet
Validated: 1
EndChar

StartChar: b
Encoding: 98 98 60
Width: 632
VWidth: 1059
Flags: W
HStem: -3 110<230 399.029> 469 110<230 398.706>
VStem: 25 110<4 60 201.708 374.292 515 797> 497 110<208.234 371.552>
LayerCount: 2
Fore
SplineSet
316 -3 m 4
 248 -3 185 21 135 60 c 5
 135 4 l 5
 25 4 l 5
 25 797 l 5
 135 797 l 5
 135 515 l 5
 185 555 248 579 316 579 c 4
 477 579 607 448 607 288 c 4
 607 127 477 -3 316 -3 c 4
316 469 m 4
 216 469 135 388 135 288 c 4
 135 188 216 107 316 107 c 4
 416 107 497 188 497 288 c 6
 497 288 497 289 497 290 c 4
 496 389 415 469 316 469 c 4
EndSplineSet
Validated: 1
EndChar

StartChar: c
Encoding: 99 99 61
Width: 578
VWidth: 1031
Flags: W
HStem: 2 105<234.109 401.009> 469 105<232.458 398.832>
VStem: 25 109<207.277 369.825>
LayerCount: 2
Fore
SplineSet
313 2 m 6
 312 2 l 6
 155 2 27 128 25 285 c 4
 25 286 25 287 25 289 c 4
 25 367 57 438 109 490 c 4
 161 542 233 574 312 574 c 4
 390 574 460 544 512 494 c 6
 546 461 l 5
 471 383 l 5
 437 419 l 6
 405 450 362 469 314 469 c 4
 262 468 216 445 184 410 c 4
 153 378 134 334 134 286 c 4
 134 285 134 284 134 282 c 4
 136 233 158 190 192 159 c 4
 225 127 269 107 318 107 c 4
 367 107 411 127 443 159 c 6
 478 192 l 5
 553 114 l 5
 519 81 l 6
 468 32 398 2 322 2 c 4
 319 2 316 2 313 2 c 6
EndSplineSet
Validated: 1
EndChar

StartChar: d
Encoding: 100 100 62
Width: 632
VWidth: 1060
Flags: W
HStem: -3 110<232.971 402> 469 110<232.971 401.678>
VStem: 25 110<204.971 374.28> 497 110<4 60 201.708 371.552 515 797>
LayerCount: 2
Fore
SplineSet
316 469 m 4
 216 469 135 388 135 288 c 4
 135 188 216 107 316 107 c 4
 416 107 497 188 497 288 c 6
 497 288 497 289 497 290 c 4
 496 389 415 469 316 469 c 4
316 -3 m 4
 155 -3 25 127 25 288 c 4
 25 448 155 579 316 579 c 4
 384 579 447 555 497 515 c 5
 497 516 497 797 497 797 c 5
 607 797 l 5
 607 4 l 5
 497 4 l 5
 497 60 l 5
 447 21 384 -3 316 -3 c 4
EndSplineSet
Validated: 1
EndChar

StartChar: e
Encoding: 101 101 63
Width: 598
VWidth: 1032
Flags: W
HStem: -1 106<236.662 424.625> 276 93<146 465> 482 93<222.943 387.579>
LayerCount: 2
Fore
SplineSet
465 369 m 5
 443 435 382 482 309 482 c 4
 306 482 303 482 301 482 c 4
 228 482 167 435 146 369 c 5
 465 369 l 5
337 -1 m 6
 332 -1 328 -1 323 -1 c 4
 222 -1 132 50 80 129 c 4
 45 176 25 234 25 297 c 4
 25 313 26 330 29 346 c 4
 49 475 161 575 296 575 c 4
 297 575 299 575 300 575 c 4
 303 575 306 575 309 575 c 4
 455 575 573 457 573 311 c 4
 573 299 572 288 571 276 c 5
 133 276 l 5
 142 180 223 105 321 105 c 4
 323 105 325 105 327 105 c 4
 396 106 459 135 505 180 c 5
 505 179 571 98 571 98 c 5
 534 70 l 6
 479 28 415 -1 340 -1 c 6
 337 -1 l 6
EndSplineSet
Validated: 1
EndChar

StartChar: f
Encoding: 102 102 64
Width: 419
VWidth: 1059
Flags: W
HStem: 1 21G<87 191> 459 104<25 87 191 374> 699 105<196.983 322.77>
VStem: 87 104<1 457 563 693.393>
LayerCount: 2
Fore
SplineSet
87 1 m 5
 87 457 l 5
 25 457 l 5
 25 563 l 5
 87 563 l 5
 87 657 l 6
 87 738 153 804 234 804 c 4
 291 803 346 788 394 764 c 5
 354 667 l 5
 316 681 275 692 234 699 c 5
 210 699 191 680 191 657 c 6
 191 563 l 5
 374 563 l 5
 374 459 l 5
 191 459 l 5
 191 1 l 5
 87 1 l 5
EndSplineSet
Validated: 1
EndChar

StartChar: g
Encoding: 103 103 65
Width: 643
VWidth: 1003
Flags: W
HStem: -225 101<216.409 421.363> -19 20G<77.274 119.5> -0 109<243.497 414.842> 468 109<243.497 414.842> 550 20G<509 618>
VStem: 41 109<202.497 373.85> 509 109<-37.7413 63 202.615 373.616 514 570>
LayerCount: 2
Fore
SplineSet
329 468 m 0xb6
 230 468 150 387 150 288 c 0
 150 189 230 109 329 109 c 0
 429 109 509 189 509 288 c 0
 509 387 429 468 329 468 c 0xb6
25 -72 m 1
 97 1 l 1xce
 142 -74 224 -124 318 -124 c 0
 333 -124 347 -122 360 -120 c 0
 438 -115 501 -53 509 24 c 1
 509 63 l 1
 460 23 397 -0 329 -0 c 0
 170 -0 41 129 41 288 c 0
 41 448 170 577 329 577 c 0xb6
 397 577 460 553 509 514 c 1
 509 570 l 1
 618 570 l 1x8e
 618 24 l 2
 618 -100 525 -203 406 -219 c 0
 383 -223 359 -225 335 -225 c 0
 209 -225 97 -166 25 -72 c 1
EndSplineSet
Validated: 1
EndChar

StartChar: h
Encoding: 104 104 66
Width: 562
VWidth: 1060
Flags: W
HStem: 0 21G<25 136 428 537> 0 21G<25 136 428 537> 495 106<230.476 388.82> 780 20G<25 136>
VStem: 25 111<0 421.584 544 800> 428 109<0 455.944>
LayerCount: 2
Fore
SplineSet
428 0 m 1xbc
 428 397 l 2
 428 451 384 495 330 495 c 0
 329 495 328 495 327 495 c 0
 248 495 178 455 136 395 c 1
 136 0 l 1
 25 0 l 1
 25 800 l 1
 136 800 l 1
 136 544 l 1
 190 580 255 601 325 601 c 0
 326 601 327 601 328 601 c 0
 441 601 532 512 537 401 c 1
 537 0 l 1
 428 0 l 1xbc
EndSplineSet
Validated: 1
EndChar

StartChar: i
Encoding: 105 105 67
Width: 189
VWidth: 1059
Flags: W
HStem: 0 21G<41 150> 0 21G<41 150> 662 35<65.5533 124.672> 766 35<65.8706 124.856>
VStem: 25 36<701.096 761.603> 41 109<0 593> 130 34<702.6 760.112>
LayerCount: 2
Fore
SplineSet
41 0 m 1xb4
 41 593 l 1
 150 593 l 1
 150 0 l 1
 41 0 l 1xb4
95 801 m 0
 133 800 164 769 164 731 c 0
 164 693 133 662 94 662 c 0
 56 662 25 693 25 731 c 0x3a
 25 770 56 801 94 801 c 0
 95 801 95 801 95 801 c 0
95 697 m 0
 114 697 129 713 130 731 c 0
 130 750 114 766 95 766 c 0
 76 766 61 750 61 731 c 0
 61 712 76 697 95 697 c 0
EndSplineSet
Validated: 1
EndChar

StartChar: j
Encoding: 106 106 68
Width: 365
VWidth: 1034
Flags: W
HStem: -201 106<51.2181 201.85> 672 35<244.228 301.823> 773 34<244.428 300.572>
VStem: 205 35<711.641 768.272> 222 106<-74.6001 593> 306 34<711.838 768.272>
LayerCount: 2
Fore
SplineSet
273 807 m 0xf4
 310 807 340 777 340 740 c 0
 340 703 310 672 272 672 c 0
 235 672 205 703 205 740 c 0
 205 777 235 807 272 807 c 0
 273 807 273 807 273 807 c 0xf4
273 707 m 0
 291 707 306 722 306 740 c 0
 306 758 292 773 273 773 c 0
 255 773 240 758 240 740 c 0
 240 722 255 707 273 707 c 0
25 -175 m 2
 57 -74 l 1
 87 -86 120 -93 154 -95 c 0
 191 -95 222 -64 222 -27 c 2
 222 593 l 1
 328 593 l 1
 328 -27 l 2xe8
 328 -123 249 -201 153 -201 c 0
 109 -199 65 -190 25 -175 c 2
EndSplineSet
Validated: 1
EndChar

StartChar: l
Encoding: 108 108 69
Width: 165
VWidth: 1060
Flags: W
HStem: 0 21G<25 140> 0 21G<25 140> 780 20G<25 140>
VStem: 25 115<0 800>
LayerCount: 2
Fore
SplineSet
25 0 m 5xb0
 25 800 l 5
 140 800 l 5
 140 0 l 5
 25 0 l 5xb0
EndSplineSet
Validated: 1
EndChar

StartChar: m
Encoding: 109 109 70
Width: 953
VWidth: 1031
Flags: W
HStem: 0 21G<25 134 422 529 819 928> 0 21G<25 134 422 529 819 928> 467 109<227.78 386.118 623.469 782.35> 549 20G<25 134>
VStem: 25 109<0 393.918 519 569> 422 107<0 392.674> 819 109<0 431.88>
LayerCount: 2
Fore
SplineSet
819 0 m 5xae
 819 371 l 6
 819 424 776 467 723 467 c 4
 722 467 720 467 719 467 c 4
 641 467 571 428 529 368 c 4
 529 0 l 5
 422 0 l 5
 422 371 l 6
 422 424 379 467 326 467 c 4
 325 467 324 467 324 467 c 4xae
 245 467 176 428 134 367 c 4
 134 0 l 5
 25 0 l 5
 25 569 l 5
 134 569 l 5x9e
 134 519 l 5
 188 555 252 576 321 576 c 4
 322 576 323 576 324 576 c 4
 393 576 455 543 493 492 c 5
 553 544 630 576 716 576 c 4
 717 576 718 576 720 576 c 4
 721 576 l 4
 835 576 927 484 928 371 c 5
 928 0 l 5
 819 0 l 5xae
EndSplineSet
Validated: 1
EndChar

StartChar: n
Encoding: 110 110 71
Width: 544
VWidth: 1032
Flags: W
HStem: 2 21G<25 132 414 519> 471 107<220.912 375.781> 551 20G<25 132>
VStem: 25 107<2 400.053 522 571> 414 105<2 436.768>
LayerCount: 2
Fore
SplineSet
414 2 m 5xd8
 414 377 l 6
 414 429 371 471 320 471 c 4
 319 471 318 471 317 471 c 4xd8
 241 471 173 433 132 374 c 4
 132 2 l 5
 25 2 l 5
 25 571 l 5
 132 571 l 5xb8
 132 522 l 5
 184 557 248 578 316 578 c 4
 427 578 517 488 519 377 c 5
 519 2 l 5
 414 2 l 5xd8
EndSplineSet
Validated: 1
EndChar

StartChar: o
Encoding: 111 111 72
Width: 646
VWidth: 1031
Flags: W
HStem: -6 113<235.504 306 306.021 416.895> 465 109<233.274 417.419>
VStem: 25 114<201.915 370.245> 512 109<203.035 367.967>
LayerCount: 2
Fore
SplineSet
324 465 m 2
 322 465 321 465 320 465 c 0
 267 463 228 447 195 416 c 0
 161 384 139 337 139 286 c 0
 139 189 216 110 312 107 c 1
 334 107 l 2
 380 107 423 125 455 155 c 0
 489 186 510 231 512 280 c 0
 512 282 512 283 512 285 c 0
 512 382 435 461 339 465 c 1
 324 465 l 2
306 -5 m 2
 150 -1 25 129 25 287 c 0
 25 371 61 447 119 500 c 0
 171 546 238 570 313 574 c 0
 321 574 330 574 342 574 c 0
 422 572 493 537 543 482 c 0
 591 431 621 362 621 286 c 0
 621 282 621 279 621 276 c 0
 619 195 585 123 530 71 c 0
 479 24 411 -6 336 -6 c 0
 335 -6 335 -6 334 -6 c 1
 335 -6 306 -5 306 -5 c 2
EndSplineSet
Validated: 1
EndChar

StartChar: p
Encoding: 112 112 73
Width: 632
VWidth: 1005
Flags: W
HStem: -1 110<229.631 399.029> 471 110<230 399.029> 554 20G<25 135>
VStem: 25 110<-219 63 203.708 376.292 518 574> 497 110<206.971 373.029>
LayerCount: 2
Fore
SplineSet
316 471 m 4xd8
 216 471 135 390 135 290 c 4
 135 190 216 109 316 109 c 4
 416 109 497 190 497 290 c 4
 497 390 416 471 316 471 c 4xd8
25 -219 m 5
 25 574 l 5
 135 574 l 5xb8
 135 518 l 5
 185 557 248 581 316 581 c 4
 477 581 607 451 607 290 c 4
 607 129 477 -1 316 -1 c 4
 247 -1 184 23 135 63 c 5
 135 62 135 -219 135 -219 c 5
 25 -219 l 5
EndSplineSet
Validated: 1
EndChar

StartChar: q
Encoding: 113 113 74
Width: 632
VWidth: 1006
Flags: W
HStem: -2 110<232.971 402> 470 110<232.971 402> 553 20G<497 607>
VStem: 25 110<202.72 372.029> 497 110<-220 62 202.708 375.292 517 573>
LayerCount: 2
Fore
SplineSet
316 470 m 0xd8
 216 470 135 389 135 289 c 0
 135 189 216 108 316 108 c 0
 416 108 497 189 497 289 c 0
 497 389 416 470 316 470 c 0xd8
497 -220 m 1
 497 62 l 1
 447 22 384 -2 316 -2 c 0
 155 -2 25 129 25 289 c 0
 25 450 155 580 316 580 c 0xd8
 384 580 447 556 497 517 c 1
 497 573 l 1
 607 573 l 1xb8
 607 -220 l 1
 497 -220 l 1
EndSplineSet
Validated: 1
EndChar

StartChar: r
Encoding: 114 114 75
Width: 544
VWidth: 1032
Flags: W
HStem: 2 21G<25 129> 473 105<255.847 465.839> 550 20G<25 130>
VStem: 25 104<2 378.158 497 570>
LayerCount: 2
Fore
SplineSet
25 2 m 1xd0
 25 570 l 1
 130 570 l 1xb0
 130 497 l 1
 196 547 277 577 366 578 c 0
 419 575 471 563 519 544 c 1
 518 544 483 444 483 444 c 1
 450 460 412 471 372 473 c 0
 369 473 365 473 362 473 c 0
 266 473 181 425 129 352 c 0
 129 352 129 313 129 261 c 0
 129 157 129 2 129 2 c 1
 25 2 l 1xd0
EndSplineSet
Validated: 1
EndChar

StartChar: s
Encoding: 115 115 76
Width: 477
VWidth: 1031
Flags: W
HStem: 0 100<166.565 340.897> 232 103<159.364 343.886> 485.564 99.4362<160.713 325.299>
VStem: 31 102<361.562 457.641> 363.631 100.369<123.63 212.667>
LayerCount: 2
Fore
SplineSet
120 32 m 0
 71 57 33 98 12 149 c 0
 108 181 l 2
 122 157 141 137 164 123 c 0
 194 108 227 100 262 100 c 0
 278 100 294 101 309 105 c 0
 334 111 354 130 362 154 c 0
 362.9734994 158.218497398 363.631098439 163.147770606 363.631098439 168.441849713 c 0
 363.631098439 195.472688127 346.487604039 232.013953869 266.717461593 232.013953869 c 0
 265.819596829 232.013953869 264.913797917 232.009324469 264 232 c 0
 263 232 261 232 260 232 c 0
 211 232 165 243 123 262 c 0
 70 289 33 344 31 407 c 0
 31 408 31 409 31 410 c 0
 31 476 70 534 126 561 c 0
 163 576 203 585 246 585 c 0
 337 585 420 545 477 483 c 0
 399 419 l 2
 376.826172378 441.173827622 304.373673769 485.563812191 234.390992086 485.563812191 c 0
 212.84695121 485.563812191 191.536976117 481.356951195 172 471 c 0
 149 460 133 437 133 410 c 0
 133 387 143.650581404 363.674709298 163 354 c 4
 195 338 223 335 256 335 c 0
 260 335 264 335 269 335 c 0
 273 335 277 335 282 335 c 0
 333 335 380 315 416 283 c 0
 446 254 464 213 464 168 c 0
 464 156 463 145 460 133 c 0
 448 72 402 24 342 10 c 0
 316 4 290 0 263 0 c 0
 212 0 163 12 120 32 c 0
EndSplineSet
Validated: 1
EndChar

StartChar: t
Encoding: 116 116 77
Width: 469
VWidth: 1052
Flags: W
HStem: 0 103<252.434 381.766> 464 107<25 140 245 426>
VStem: 140 105<108.99 464 571 744>
LayerCount: 2
Fore
SplineSet
140 142 m 2
 140 464 l 1
 25 464 l 1
 25 571 l 1
 140 571 l 1
 140 744 l 1
 245 744 l 1
 245 571 l 1
 426 571 l 1
 426 464 l 1
 245 464 l 1
 245 143 l 2
 247 122 263 106 284 103 c 0
 327 104 368 116 404 135 c 1
 444 39 l 1
 383 12 332 0 290 0 c 0
 186 0 140 71 140 142 c 2
EndSplineSet
Validated: 1
EndChar

StartChar: u
Encoding: 117 117 78
Width: 557
VWidth: 1031
Flags: W
HStem: 2 111<173.034 330.7> 558 20G<25 135 424 532>
VStem: 25 110<150.034 578> 424 108<10 59 184.881 578>
LayerCount: 2
Fore
SplineSet
231 2 m 0
 230 2 230 2 229 2 c 0
 116 2 25 93 25 206 c 0
 25 207 25 208 25 209 c 0
 25 578 l 1
 135 578 l 1
 135 209 l 2
 135 156 178 113 231 113 c 0
 233 113 234 113 235 113 c 0
 313 113 382 152 424 211 c 0
 424 212 424 578 424 578 c 1
 532 578 l 1
 532 10 l 1
 424 10 l 1
 424 59 l 1
 373 23 310 2 243 2 c 0
 239 2 235 2 231 2 c 0
EndSplineSet
Validated: 1
EndChar

StartChar: v
Encoding: 118 118 79
Width: 585
VWidth: 1032
Flags: W
HStem: 2 21G<247.014 336.056> 558 20G<25 144 440 560>
LayerCount: 2
Fore
SplineSet
255 2 m 1
 25 578 l 1
 136 578 l 1
 292 188 l 1
 448 578 l 1
 560 578 l 1
 328 2 l 1
 255 2 l 1
EndSplineSet
Validated: 1
EndChar

StartChar: w
Encoding: 119 119 80
Width: 707
VWidth: 1032
Flags: W
HStem: 2 21G<191.887 284.485 422.576 515.113> 548 20G<25 138.78 568.22 682>
VStem: 311 85<526.936 557>
LayerCount: 2
Fore
SplineSet
427 2 m 1
 354 332 l 1
 280 2 l 1
 198 2 l 1
 25 568 l 1
 133 568 l 1
 233 222 l 1
 311 557 l 1
 396 557 l 1
 474 222 l 1
 574 568 l 1
 682 568 l 1
 509 2 l 1
 427 2 l 1
EndSplineSet
Validated: 1
EndChar

StartChar: x
Encoding: 120 120 81
Width: 640
VWidth: 1032
Flags: W
HStem: 2 21G<25 167.077 471.828 615> 558 20G<25 167.077 471.828 613>
LayerCount: 2
Fore
SplineSet
25 2 m 1
 255 290 l 1
 25 578 l 1
 151 578 l 1
 319 369 l 1
 488 578 l 1
 613 578 l 1
 382 290 l 1
 615 2 l 1
 488 2 l 1
 319 211 l 1
 151 2 l 1
 25 2 l 1
EndSplineSet
Validated: 1
EndChar

StartChar: y
Encoding: 121 121 82
Width: 593
VWidth: 1003
Flags: W
HStem: -224 107<127 172> 559 20G<25 146.173 446.132 568>
LayerCount: 2
Fore
SplineSet
127 -224 m 1
 127 -117 l 1
 172 -117 l 1
 240 43 l 1
 25 579 l 1
 138 579 l 1
 299 185 l 1
 454 579 l 1
 568 579 l 1
 272 -156 l 2
 256 -195 217 -223 172 -224 c 0
 127 -224 l 1
EndSplineSet
Validated: 1
EndChar

StartChar: z
Encoding: 122 122 83
Width: 519
VWidth: 1032
Flags: W
HStem: 2 105<179 494> 474 104<26 340>
LayerCount: 2
Fore
SplineSet
494 499 m 1
 179 107 l 1
 494 107 l 1
 494 2 l 1
 25 2 l 1
 25 80 l 1
 340 474 l 1
 26 474 l 1
 26 578 l 1
 494 578 l 1
 494 499 l 1
EndSplineSet
Validated: 1
EndChar

StartChar: zero
Encoding: 48 48 84
Width: 599
VWidth: 1017
Flags: W
HStem: 0 90<213.754 384.609> 708 92<213.539 381.447>
VStem: 25 91<219.777 579.95> 483 91<218.068 573.896>
LayerCount: 2
Fore
SplineSet
299 0 m 0
 172 0 25 68 25 400 c 0
 25 732 172 800 299 800 c 0
 483 800 574 665 574 400 c 0
 574 135 476 0 299 0 c 0
299 708 m 0
 172 708 116 611 116 400 c 0
 116 189 173 90 299 90 c 0
 460 90 483 255 483 400 c 0
 483 545 456 708 299 708 c 0
EndSplineSet
Validated: 1
EndChar

StartChar: one
Encoding: 49 49 85
Width: 461
VWidth: 1017
Flags: W
HStem: -0 92<25 185 277 436> 549 92<25 130.098> 780 20G<185 277>
VStem: 185 92<92 587 694.955 800>
LayerCount: 2
Fore
SplineSet
25 -0 m 5
 25 92 l 5
 185 92 l 5
 185 587 l 5
 150 563 108 549 62 549 c 6
 25 549 l 5
 25 641 l 5
 62 641 l 6
 129 641 184 696 185 763 c 5
 185 800 l 5
 277 800 l 5
 277 91 l 5
 436 91 l 5
 436 -1 l 5
 25 -0 l 5
EndSplineSet
Validated: 1
EndChar

StartChar: two
Encoding: 50 50 86
Width: 585
VWidth: 1018
Flags: W
HStem: 5 94<229 560> 711 91.8828<228.103 391.598>
VStem: 59 94<494 630.33> 454 88<485.981 647.901>
LayerCount: 2
Fore
SplineSet
25 5 m 5
 401 438 l 6
 432 473 451 517 454 566 c 5
 454 585 l 6
 449 655 390 711 319 711 c 4
 316 711 314 711 312 711 c 4
 213 711 154 647 153 531 c 6
 153 494 l 5
 59 494 l 5
 59 531 l 6
 58 541 57 551 57 561 c 4
 57 721.19721106 183.312885142 802.882819094 307.046452097 802.882819094 c 4
 422.751546417 802.882819094 536.201182364 731.453675712 542 586 c 5
 542 570 l 6
 540 485 504 409 448 353 c 4
 374 268 285 165 229 99 c 5
 560 99 l 5
 560 5 l 5
 25 5 l 5
EndSplineSet
Validated: 1
EndChar

StartChar: three
Encoding: 51 51 87
Width: 516
VWidth: 1018
Flags: W
HStem: 2 89<183.739 249 253 338.391> 711 90<181.545 323.249>
VStem: 25 90<160.529 258> 34 91<555 657.973> 373 89<576.428 665.914> 401 90<150.16 280.033>
LayerCount: 2
Fore
SplineSet
249 1 m 5xc4
 128 3 29 100 25 220 c 5
 25 258 l 5
 115 258 l 5
 115 222 l 5
 120 149 180 92 254 92 c 6
 258 92 l 5
 262 91 266 91 271 91 c 4
 340 91 398 146 401 215 c 4xe4
 401 247 401 263 355 305 c 5
 224 419 l 5
 224 439 l 6
 224 457 224 457 349 573 c 4
 362 585 371 601 373 620 c 4
 373 671 306 711 249 711 c 6
 247 711 l 6
 180 711 126 657 125 591 c 5
 125 555 l 5
 34 555 l 5
 34 591 l 6
 34 707 128 801 244 801 c 6
 257 801 l 6
 363 801 450 722 462 620 c 5
 462 616 l 6xd8
 462 572 443 533 412 506 c 5
 340 439 l 5
 408 381 l 5
 458 345 491 286 491 220 c 4
 488 99 389 2 268 2 c 4
 263 2 258 3 253 3 c 5
 249 1 l 5xc4
EndSplineSet
Validated: 1
EndChar

StartChar: four
Encoding: 52 52 88
Width: 541
VWidth: 1017
Flags: W
HStem: 0 21G<331 423> 0 21G<331 423> 228 93<152 331 423 516> 780 20G<332.352 423>
VStem: 331 92<0 228 321 599>
LayerCount: 2
Fore
SplineSet
331 0 m 1xb8
 331 228 l 1
 25 228 l 1
 25 294 l 1
 345 800 l 1
 423 800 l 1
 423 321 l 1
 516 321 l 1
 516 229 l 1
 423 229 l 1
 423 0 l 1
 331 0 l 1xb8
331 321 m 1
 331 599 l 1
 152 321 l 1
 331 321 l 1
EndSplineSet
Validated: 1
EndChar

StartChar: five
Encoding: 53 53 89
Width: 583
VWidth: 1017
Flags: W
HStem: 0 92<207.422 374.467> 429 93<179.041 365.598> 685 93<166 523> 781 20G<73 166>
VStem: 25 93<178.09 289> 73 92<499 685 778 801> 466 92<180.398 328.299>
LayerCount: 2
Fore
SplineSet
298 0 m 0xf6
 121 0 29 132 25 251 c 1
 25 291 l 1
 65 291 l 1
 118 289 l 1
 118 253 l 1xfa
 121 166 192 95 280 93 c 0
 285 93 290 92 295 92 c 0
 387 92 462 165 466 256 c 1
 459 352 379 429 280 429 c 2
 266 429 l 2
 223 429 183 414 152 390 c 1
 141 381 l 1
 73 381 l 1
 73 801 l 1
 166 801 l 1
 166 778 l 1
 523 778 l 1
 523 685 l 1
 165 685 l 1
 165 499 l 1
 198 512 233 521 270 522 c 1
 279 522 l 2
 429 522 551 404 558 256 c 1
 555 114 440 0 298 0 c 0xf6
EndSplineSet
Validated: 1
EndChar

StartChar: six
Encoding: 54 54 90
Width: 571
VWidth: 1018
Flags: W
HStem: -1 87<201.926 364.274> 430 90<217.985 368.654> 781 20G<251.188 282>
VStem: 25 87<176.011 339.989> 456 90<176.346 342.112>
LayerCount: 2
Fore
SplineSet
285 430 m 5
 285 430 285 430 284 430 c 4
 189 430 112 353 112 258 c 4
 112 163 189 86 284 86 c 4
 379 86 456 163 456 258 c 4
 456 259 456 260 456 261 c 4
 456 355 379 431 285 432 c 5
 285 430 l 5
285 -1 m 4
 142 -1 25 116 25 259 c 4
 25 260 25 260 25 261 c 6
 25 262 l 6
 25 302 35 341 52 375 c 6
 261 801 l 5
 282 795 l 5
 340 762 l 5
 217 511 l 5
 238 517 260 520 283 520 c 4
 284 520 284 520 285 520 c 4
 429 520 546 403 546 260 c 4
 546 116 429 -1 285 -1 c 4
EndSplineSet
Validated: 1
EndChar

StartChar: seven
Encoding: 55 55 91
Width: 609
VWidth: 1016
Flags: W
HStem: 0 21G<83 130.625> 0 21G<83 130.625> 707 93<25 417>
LayerCount: 2
Fore
SplineSet
29 50 m 1xa0
 417 707 l 1
 25 707 l 1
 25 800 l 1
 584 800 l 1
 119 0 l 1
 29 50 l 1xa0
EndSplineSet
Validated: 1
EndChar

StartChar: eight
Encoding: 56 56 92
Width: 535
VWidth: 1018
Flags: W
HStem: 1 89<191.255 345.149> 376 110<210.891 325.109> 711 90<199.119 335.503>
VStem: 25 90<167.065 322.307> 55 90<519.449 656.962> 390 89<519.471 656.801> 422 88<166.604 321.425>
LayerCount: 2
Fore
SplineSet
268 711 m 4xec
 200 711 145 656 145 589 c 4
 145 588 145 588 145 587 c 4
 145 541 171 500 210 480 c 5
 229 484 248 486 268 486 c 4
 288 486 307 484 326 480 c 5
 364 501 390 542 390 588 c 4
 390 656 335 711 268 711 c 4xec
205 385 m 5
 152 361 115 307 115 245 c 4
 115 244 115 244 115 243 c 4
 115 159 184 90 269 90 c 4
 353 90 422 159 422 243 c 4xf2
 422 307 384 361 329 385 c 5
 309 379 289 376 268 376 c 4
 246 376 225 379 205 385 c 5
268 1 m 4
 134 1 25 109 25 243 c 4xf2
 25 321 62 391 119 436 c 5
 79 475 55 529 55 589 c 4
 55 706 150 801 267 801 c 4
 384 801 479 706 479 589 c 4
 479 588 479 588 479 587 c 4xec
 479 528 454 474 415 436 c 5
 473 392 510 322 510 244 c 4
 510 110 401 1 268 1 c 4
EndSplineSet
Validated: 1
EndChar

StartChar: nine
Encoding: 57 57 93
Width: 570
VWidth: 1016
Flags: W
HStem: -1 21G<287 319.766> 282 86<203.011 351.953> 712 90<203.011 367.313>
VStem: 25 88<458.232 620.542> 457 88<458.011 619.095>
LayerCount: 2
Fore
SplineSet
286 712 m 6
 285 712 l 6
 190 712 113 635 113 540 c 4
 113 445 190 368 285 368 c 4
 380 368 457 445 457 540 c 6
 457 541 l 6
 457 635 380 712 286 712 c 6
545 542 m 6
 545 540 l 6
 545 500 536 461 519 427 c 6
 310 -1 l 5
 287 7 l 5
 231 40 l 5
 354 290 l 5
 333 285 311 282 288 282 c 6
 285 282 l 6
 142 282 25 398 25 542 c 4
 25 685 142 802 285 802 c 4
 429 802 545 685 545 542 c 6
EndSplineSet
Validated: 1
EndChar

StartChar: k
Encoding: 107 107 94
Width: 526
VWidth: 1050
Flags: W
HStem: 0 21G<25 125> 0 21G<25 125> 780 20G<25 125>
VStem: 25 100<0 220 392 800>
LayerCount: 2
Fore
SplineSet
125 220 m 1xb0
 125 0 l 1
 25 0 l 1
 25 800 l 5
 125 800 l 5
 125 392 l 1
 501 609 l 1
 501 494 l 1
 175 306 l 1
 501 118 l 1
 501 4 l 1
 125 220 l 1xb0
EndSplineSet
Validated: 1
EndChar

StartChar: yen
Encoding: 165 165 95
Width: 586
Flags: W
VStem: 24.9531 536.094<285.692 442.013>
LayerCount: 2
Fore
SplineSet
293 481 m 1
 330.023560203 510.785871742 368.286981572 523.446161132 403.90740066 523.446161132 c 0
 490.239932028 523.446161132 561.046861769 449.076717322 561.046861769 363.911357032 c 0
 561.046861769 357.986026594 560.704113763 352.008437445 560 346 c 0
 542 207 328 29 294 26 c 1
 292 26 l 1
 258 30 44 207 26 346 c 0
 25.2958862369 352.008437445 24.9531382311 357.986026594 24.9531382311 363.911357032 c 0
 24.9531382311 449.076717322 95.7600679716 523.446161132 182.09259934 523.446161132 c 0
 217.713018428 523.446161132 255.976439797 510.785871742 293 481 c 1
EndSplineSet
Validated: 524289
EndChar
